<?xml version="1.0" encoding="utf-8"?>
<!-- Generator: Adobe Illustrator 23.0.0, SVG Export Plug-In . SVG Version: 6.00 Build 0)  -->
<svg version="1.1" id="图层_1" xmlns="http://www.w3.org/2000/svg" xmlns:xlink="http://www.w3.org/1999/xlink" x="0px" y="0px"
	 viewBox="0 0 100 100" style="enable-background:new 0 0 100 100;" xml:space="preserve">
<style type="text/css">
	.st0{fill:#E0E0E0;}
	.st1{fill:#505050;}
</style>
<circle class="st0" cx="50" cy="50" r="50"/>
<rect x="18.8" y="19" class="st1" width="20.3" height="2.6"/>
<rect x="10" y="27.8" transform="matrix(-1.836970e-16 1 -1 -1.836970e-16 49.2491 9.0208)" class="st1" width="20.3" height="2.6"/>
<rect x="17.9" y="28.7" transform="matrix(0.7071 0.7071 -0.7071 0.7071 29.9562 -12.35)" class="st1" width="24" height="2.6"/>
<rect x="69.8" y="27.7" transform="matrix(-1.836970e-16 1 -1 -1.836970e-16 108.971 -50.8673)" class="st1" width="20.3" height="2.6"/>
<rect x="60.9" y="18.9" transform="matrix(-1 -1.224647e-16 1.224647e-16 -1 142.1478 40.4131)" class="st1" width="20.3" height="2.6"/>
<rect x="58.2" y="28.7" transform="matrix(-0.7071 0.7071 -0.7071 -0.7071 141.077 1.5206)" class="st1" width="24" height="2.6"/>
<rect x="60.9" y="78.7" transform="matrix(-1 -1.224647e-16 1.224647e-16 -1 142.1713 159.9844)" class="st1" width="20.3" height="2.6"/>
<rect x="69.8" y="69.8" transform="matrix(6.123234e-17 -1 1 6.123234e-17 8.7839 151.0779)" class="st1" width="20.3" height="2.6"/>
<rect x="58.2" y="69" transform="matrix(-0.7071 -0.7071 0.7071 -0.7071 70.062 169.6139)" class="st1" width="24" height="2.6"/>
<rect x="9.9" y="69.9" transform="matrix(6.123234e-17 -1 1 6.123234e-17 -51.161 91.2992)" class="st1" width="20.3" height="2.6"/>
<rect x="18.8" y="78.8" class="st1" width="20.3" height="2.6"/>
<rect x="17.8" y="69" transform="matrix(0.7071 -0.7071 0.7071 0.7071 -40.9943 41.6383)" class="st1" width="24" height="2.6"/>
</svg>
